<svg width="18" height="20" viewBox="0 0 18 20" fill="currentColor" xmlns="http://www.w3.org/2000/svg">
<path fill-rule="evenodd" clip-rule="evenodd" d="M9.71034 1.64499C10.4366 0.756245 11.6828 0.0737495 12.7491 0C12.9278 1.21499 12.4341 2.40498 11.7816 3.24623C11.0841 4.14997 9.88034 4.84872 8.71535 4.81247C8.50285 3.64873 9.04785 2.45123 9.71034 1.64499ZM13.1416 4.68122C14.5003 4.68122 15.9391 5.42621 16.9628 6.70995C13.6066 8.56119 14.1503 13.3837 17.5415 14.6749C17.0753 15.7149 16.8515 16.1786 16.2503 17.0999C15.4116 18.3849 14.2303 19.9861 12.7641 19.9974C12.1614 20.0037 11.7659 19.8213 11.3396 19.6246C10.8454 19.3966 10.3097 19.1495 9.36159 19.1549C8.41866 19.1595 7.87438 19.4036 7.37348 19.6283C6.93612 19.8244 6.53183 20.0057 5.92412 19.9999C4.45913 19.9874 3.33914 18.5424 2.50039 17.2574C0.156657 13.6662 -0.0908408 9.44994 1.3554 7.20745C2.38414 5.61496 4.00663 4.68372 5.53037 4.68372C6.34248 4.68372 6.99699 4.91839 7.62072 5.14203C8.1884 5.34557 8.73057 5.53996 9.34284 5.53996C9.90939 5.53996 10.3752 5.36249 10.8833 5.1689C11.4928 4.93666 12.1633 4.68122 13.1416 4.68122Z" fill="#FCFAF9"/>
</svg>
