<svg width="18" height="20" viewBox="0 0 18 20" fill="none" xmlns="http://www.w3.org/2000/svg">
<path fill-rule="evenodd" clip-rule="evenodd" d="M12.4251 0.126135C12.5923 -0.0420448 12.8411 -0.0420448 13.0082 0.126135C13.1754 0.29338 13.1754 0.541578 13.0082 0.708756L11.9235 1.79345C12.273 2.02676 12.59 2.31227 12.8654 2.63881C13.5251 3.42065 13.946 4.4384 14.0038 5.54104L14.0048 5.5561C14.0053 5.5625 14.0058 5.5689 14.0061 5.57535C14.0095 5.65043 14.0113 5.72591 14.0113 5.80166H3.98854C3.98854 5.72591 3.99021 5.65043 3.99375 5.57535C3.99402 5.56962 3.99443 5.56392 3.99485 5.55822L3.99485 5.5582C3.99527 5.55249 3.99568 5.54678 3.99595 5.54104C4.05381 4.4384 4.4746 3.42072 5.1343 2.63875C5.40986 2.3122 5.72673 2.0267 6.07617 1.79338L4.99168 0.708689C4.82443 0.541578 4.82443 0.29338 4.99168 0.126135C5.15879 -0.0420448 5.40746 -0.0420448 5.5747 0.126135L6.69576 1.24353L6.74762 1.29518C7.41233 0.962293 8.15766 0.796049 8.98761 0.794447L8.99989 0.794314H9.00002L9.01217 0.794447C9.84219 0.796049 10.5875 0.962293 11.2523 1.29518L11.304 1.24353L12.4251 0.126135ZM6.28446 3.71596C6.28446 4.0618 6.56482 4.34216 6.91066 4.34216C7.2565 4.34216 7.53686 4.0618 7.53686 3.71596C7.53686 3.37013 7.2565 3.08976 6.91066 3.08976C6.56482 3.08976 6.28446 3.37013 6.28446 3.71596ZM11.0892 4.34216C10.7433 4.34216 10.463 4.0618 10.463 3.71596C10.463 3.37013 10.7433 3.08976 11.0892 3.08976C11.435 3.08976 11.7154 3.37013 11.7154 3.71596C11.7154 4.0618 11.435 4.34216 11.0892 4.34216ZM1.90078 14.9886C2.56956 14.9886 3.15265 14.4055 3.15265 13.7367V7.88948C3.15265 7.22431 2.56963 6.63815 1.90078 6.63815C1.23207 6.63815 0.649048 7.22431 0.649048 7.88948V13.7367C0.649048 14.4054 1.23207 14.9886 1.90078 14.9886ZM12.3395 18.7481C12.3395 19.4168 11.7564 19.9999 11.0876 19.9999C10.4189 19.9999 9.83578 19.4168 9.83585 18.7481V15.8245H8.164V18.7481C8.164 19.4168 7.58091 20 6.91226 20C6.24342 20 5.66039 19.4168 5.66039 18.7481V15.8245H4.82443C4.3229 15.8245 3.98854 15.4901 3.98854 14.9886V6.63815H14.0113V14.9885C14.0113 15.49 13.677 15.8244 13.1754 15.8244H12.3395V18.7481ZM17.3509 13.7367C17.3509 14.4055 16.7678 14.9886 16.0991 14.9886C15.4303 14.9886 14.8473 14.4054 14.8473 13.7367V7.88948C14.8473 7.22431 15.4303 6.63815 16.0991 6.63815C16.7678 6.63815 17.3509 7.22431 17.3509 7.88948V13.7367Z" fill="#191826"/>
</svg>
