<svg width="144" height="32" viewBox="0 0 144 32" fill="none" xmlns="http://www.w3.org/2000/svg">
<path d="M2.6495 18V14.72H13.7521L13.279 15.552C13.279 15.4667 13.279 15.3867 13.279 15.312C13.279 15.2267 13.279 15.1467 13.279 15.072C13.279 14.464 13.1371 13.8827 12.8532 13.328C12.5693 12.7627 12.1278 12.304 11.5285 11.952C10.9397 11.5893 10.1827 11.408 9.25747 11.408C8.33224 11.408 7.53319 11.6107 6.8603 12.016C6.19793 12.4107 5.68801 12.9813 5.33053 13.728C4.98358 14.4747 4.8101 15.376 4.8101 16.432C4.8101 17.52 4.97832 18.4533 5.31476 19.232C5.66172 20 6.17164 20.592 6.84453 21.008C7.52793 21.424 8.3743 21.632 9.38363 21.632C10.0355 21.632 10.598 21.5733 11.0711 21.456C11.5442 21.328 11.928 21.168 12.2224 20.976C12.5273 20.784 12.7586 20.5707 12.9163 20.336C13.074 20.1013 13.1686 19.872 13.2002 19.648H18.026C17.963 20.3627 17.7211 21.0667 17.3006 21.76C16.88 22.4427 16.2965 23.0613 15.55 23.616C14.8035 24.16 13.8941 24.592 12.8217 24.912C11.7598 25.232 10.5454 25.392 9.17861 25.392C7.32817 25.392 5.71429 25.0187 4.33697 24.272C2.95966 23.5147 1.8925 22.4747 1.1355 21.152C0.378499 19.8187 0 18.2827 0 16.544C0 14.784 0.383756 13.2427 1.15127 11.92C1.9293 10.5867 3.00697 9.552 4.38429 8.816C5.77212 8.06933 7.37548 7.696 9.19438 7.696C11.0553 7.696 12.664 8.07467 14.0202 8.832C15.3765 9.57867 16.4227 10.6293 17.1586 11.984C17.8946 13.328 18.2626 14.896 18.2626 16.688C18.2626 16.9547 18.2573 17.2107 18.2468 17.456C18.2363 17.7013 18.2205 17.8827 18.1995 18H2.6495Z" fill="#191826"/>
<path d="M27.8821 25.392C26.4838 25.392 25.1958 25.056 24.0183 24.384C22.8407 23.7013 21.8945 22.6933 21.1795 21.36C20.4646 20.0267 20.1071 18.384 20.1071 16.432C20.1071 14.5653 20.4698 12.9813 21.1953 11.68C21.9313 10.3787 22.888 9.392 24.0656 8.72C25.2536 8.03733 26.5258 7.696 27.8821 7.696C29.2069 7.696 30.4159 8.03733 31.5094 8.72C32.6133 9.40267 33.4965 10.336 34.1589 11.52C34.8213 12.6933 35.1525 14.048 35.1525 15.584C35.1525 15.6373 35.1525 15.6907 35.1525 15.744C35.1525 15.7867 35.1525 15.8347 35.1525 15.888L33.0392 15.92C33.0392 15.888 33.0392 15.856 33.0392 15.824C33.0392 15.7813 33.0392 15.744 33.0392 15.712C33.0392 14.912 32.8499 14.224 32.4714 13.648C32.0929 13.072 31.604 12.6293 31.0047 12.32C30.4054 12 29.7799 11.84 29.128 11.84C28.0451 11.84 27.1093 12.208 26.3208 12.944C25.5323 13.6693 25.138 14.832 25.138 16.432C25.138 18.032 25.5323 19.2107 26.3208 19.968C27.1199 20.7147 28.0556 21.088 29.128 21.088C29.8009 21.088 30.437 20.928 31.0363 20.608C31.6356 20.2773 32.1192 19.8133 32.4872 19.216C32.8552 18.6187 33.0392 17.9147 33.0392 17.104L35.1525 17.216C35.1525 18.7413 34.8265 20.1227 34.1747 21.36C33.5333 22.5867 32.6607 23.568 31.5567 24.304C30.4633 25.0293 29.2384 25.392 27.8821 25.392ZM33.0392 32V8.016H37.9439V32H33.0392Z" fill="#191826"/>
<path d="M47.179 25.328C45.9909 25.328 45.0131 25.136 44.2456 24.752C43.4781 24.3573 42.8735 23.8293 42.432 23.168C41.9904 22.5067 41.6802 21.7707 41.5015 20.96C41.3228 20.1493 41.2334 19.328 41.2334 18.496C41.2334 18.112 41.2334 17.7067 41.2334 17.28C41.2334 16.8533 41.2334 16.416 41.2334 15.968V8.016H46.1223V15.184C46.1223 15.5467 46.1223 15.8987 46.1223 16.24C46.1223 16.5813 46.1223 16.896 46.1223 17.184C46.1223 17.8987 46.2012 18.5547 46.3589 19.152C46.5166 19.7493 46.8057 20.2293 47.2263 20.592C47.6574 20.9547 48.2672 21.136 49.0557 21.136C49.8232 21.136 50.4751 20.9173 51.0113 20.48C51.5475 20.032 51.9575 19.4613 52.2414 18.768C52.5253 18.0747 52.6672 17.36 52.6672 16.624L54.0393 17.76C54.0393 18.8267 53.8763 19.8187 53.5504 20.736C53.235 21.6533 52.7829 22.4587 52.1941 23.152C51.6053 23.8347 50.8851 24.368 50.0335 24.752C49.1924 25.136 48.2409 25.328 47.179 25.328ZM52.6672 25.008V8.016H57.5562V25.008H52.6672Z" fill="#191826"/>
<path d="M66.4635 25.36C65.2439 25.36 64.1557 25.1627 63.199 24.768C62.2527 24.3733 61.5115 23.8027 60.9753 23.056C60.4391 22.3093 60.171 21.4027 60.171 20.336C60.171 19.1307 60.4969 18.1493 61.1488 17.392C61.8006 16.6347 62.6628 16.0587 63.7352 15.664C64.8181 15.2587 65.9904 14.992 67.2521 14.864C69.092 14.6827 70.3589 14.5173 71.0528 14.368C71.7573 14.2187 72.1095 13.9573 72.1095 13.584C72.1095 13.5733 72.1095 13.5627 72.1095 13.552C72.1095 12.9227 71.8098 12.4267 71.2105 12.064C70.6218 11.7013 69.7964 11.52 68.7345 11.52C67.6095 11.52 66.7474 11.728 66.1481 12.144C65.5593 12.5493 65.2649 13.1733 65.2649 14.016H60.4548C60.4548 12.6507 60.8176 11.4987 61.543 10.56C62.279 9.62133 63.2726 8.912 64.5237 8.432C65.7749 7.94133 67.189 7.696 68.7661 7.696C70.238 7.696 71.5996 7.92533 72.8507 8.384C74.1019 8.832 75.1059 9.50933 75.8629 10.416C76.6304 11.3227 77.0142 12.4747 77.0142 13.872C77.0142 14.096 77.0142 14.32 77.0142 14.544C77.0142 14.7573 77.0142 14.976 77.0142 15.2V21.216C77.0142 21.6533 77.0247 22.0747 77.0457 22.48C77.0773 22.8747 77.1404 23.2373 77.235 23.568C77.3401 23.9413 77.4715 24.2507 77.6293 24.496C77.787 24.7413 77.9184 24.912 78.0235 25.008H73.2134C73.1398 24.9333 73.0242 24.7787 72.8665 24.544C72.7193 24.3093 72.5931 24.0373 72.488 23.728C72.3618 23.3547 72.2672 22.9813 72.2041 22.608C72.1515 22.224 72.1253 21.776 72.1253 21.264L73.1346 21.968C72.8402 22.672 72.3618 23.28 71.6994 23.792C71.0476 24.2933 70.2696 24.6827 69.3654 24.96C68.4717 25.2267 67.5044 25.36 66.4635 25.36ZM67.7725 21.648C68.54 21.648 69.255 21.5093 69.9173 21.232C70.5902 20.944 71.1369 20.496 71.5575 19.888C71.9781 19.28 72.1883 18.4853 72.1883 17.504V15.792L73.4027 16.992C72.7088 17.248 71.9045 17.4613 70.9898 17.632C70.0856 17.792 69.1814 17.92 68.2772 18.016C67.2048 18.1227 66.4004 18.3093 65.8642 18.576C65.3385 18.832 65.0757 19.2693 65.0757 19.888C65.0757 20.4747 65.3018 20.9173 65.7538 21.216C66.2059 21.504 66.8788 21.648 67.7725 21.648Z" fill="#191826"/>
<path d="M85.2163 0V25.008H80.3904V0H85.2163Z" fill="#191826"/>
<path d="M88.49 25.008V8.016H93.3317V25.008H88.49ZM90.903 5.248C90.146 5.248 89.4836 5.04533 88.9159 4.64C88.3586 4.23467 88.08 3.664 88.08 2.928C88.08 2.18133 88.3586 1.60533 88.9159 1.2C89.4836 0.794668 90.146 0.592001 90.903 0.592001C91.6705 0.592001 92.3329 0.794668 92.8901 1.2C93.4578 1.60533 93.7417 2.18133 93.7417 2.928C93.7417 3.67467 93.4578 4.25067 92.8901 4.656C92.3329 5.05067 91.6705 5.248 90.903 5.248Z" fill="#191826"/>
<path d="M100.77 21.12H109.854V25.008H95.5342V21.328L104.397 11.712L104.508 11.888H95.8496V8.016H109.665V11.696L100.881 21.28L100.77 21.12Z" fill="#191826"/>
<path d="M113.736 18V14.72H124.839L124.366 15.552C124.366 15.4667 124.366 15.3867 124.366 15.312C124.366 15.2267 124.366 15.1467 124.366 15.072C124.366 14.464 124.224 13.8827 123.94 13.328C123.656 12.7627 123.215 12.304 122.615 11.952C122.027 11.5893 121.27 11.408 120.344 11.408C119.419 11.408 118.62 11.6107 117.947 12.016C117.285 12.4107 116.775 12.9813 116.418 13.728C116.071 14.4747 115.897 15.376 115.897 16.432C115.897 17.52 116.065 18.4533 116.402 19.232C116.749 20 117.259 20.592 117.932 21.008C118.615 21.424 119.461 21.632 120.471 21.632C121.122 21.632 121.685 21.5733 122.158 21.456C122.631 21.328 123.015 21.168 123.309 20.976C123.614 20.784 123.846 20.5707 124.003 20.336C124.161 20.1013 124.256 19.872 124.287 19.648H129.113C129.05 20.3627 128.808 21.0667 128.388 21.76C127.967 22.4427 127.384 23.0613 126.637 23.616C125.891 24.16 124.981 24.592 123.909 24.912C122.847 25.232 121.632 25.392 120.266 25.392C118.415 25.392 116.801 25.0187 115.424 24.272C114.047 23.5147 112.979 22.4747 112.223 21.152C111.465 19.8187 111.087 18.2827 111.087 16.544C111.087 14.784 111.471 13.2427 112.238 11.92C113.016 10.5867 114.094 9.552 115.471 8.816C116.859 8.06933 118.462 7.696 120.281 7.696C122.142 7.696 123.751 8.07467 125.107 8.832C126.464 9.57867 127.51 10.6293 128.246 11.984C128.982 13.328 129.35 14.896 129.35 16.688C129.35 16.9547 129.344 17.2107 129.334 17.456C129.323 17.7013 129.308 17.8827 129.287 18H113.736Z" fill="#191826"/>
<path d="M131.967 25.008V8.016H136.872V13.872L135.862 13.232C135.978 12.432 136.188 11.696 136.493 11.024C136.798 10.352 137.192 9.77067 137.676 9.28C138.16 8.77867 138.733 8.38933 139.395 8.112C140.068 7.83467 140.835 7.696 141.697 7.696C142.37 7.696 142.896 7.74933 143.275 7.856C143.664 7.952 143.905 8.02667 144 8.08L143.196 12.528C143.101 12.4747 142.891 12.3893 142.565 12.272C142.239 12.1547 141.818 12.096 141.303 12.096C140.462 12.096 139.758 12.24 139.19 12.528C138.622 12.816 138.165 13.2 137.818 13.68C137.481 14.1493 137.24 14.672 137.092 15.248C136.945 15.824 136.872 16.4053 136.872 16.992V25.008H131.967Z" fill="#191826"/>
</svg>
